<?xml version="1.0" encoding="UTF-8"?><svg id="Layer_1" xmlns="http://www.w3.org/2000/svg" viewBox="0 0 600 600"><defs><style>.cls-1{fill:#fff;}</style></defs><rect class="cls-1" width="600" height="600"/><path id="S" d="M557.66,201.48c.42.41.56,1.46.62,2.06.53,5.74.36,12.22.51,18,.16,5.76-.69,11.26-.52,17.06.04,1.37,1.14,2.79-.23,4.15-1.95,1.93-3.7-.86-4.34-2.58-.87-2.33-.96-6.39-1.62-9.12-.95-3.95-3.26-9.94-6.69-12.43-3.84-2.78-14.27-2.94-18.14-.23-16.45,11.56-13.11,33.16-4.12,48.35,6.8,11.49,22.9,18.9,33.61,26.91,11.61,8.68,20.6,18.5,26.77,31.68,6.87,14.66,9.57,35.97,1.65,50.65-10.46,19.37-26.67,30.58-49.02,32.72-5.1.49-10.92-.78-16.34-.46-1.77.11-3.52.73-5.34.6-3,1.05-5.28,8.61-7.96,8.56-3.52-.07-.96-8.24-.8-10.33.64-8.31-.7-17.52-.02-25.82.15-1.81.32-5.31,2.71-5.14,2.46.22,2.5,5.8,3.13,7.68,1.21,3.6,6.71,10.47,9.87,12.71,5.65,4.01,10.35,2.48,16.42.7,6.77-1.98,19.09-7.08,23.44-12.54,6.25-7.86,7.24-23.89,6.97-33.62-.33-11.74-3.77-26.88-8.72-37.7-5.25-11.48-21.41-21.21-32.33-27.19-2.48-1.36-5.48-2.23-8.06-3.77-10.39-6.2-20.12-16.28-24.59-27.48-7.77-19.44,12.81-42.99,31.88-46.61,8.2-1.55,15.43.9,23.28-3.45,1.97-1.09,5.92-5.39,7.99-3.38Z"/><path id="A" d="M444.53,203.69c-.39.38-4.35,1.56-5.2,1.96-3.09,1.45-9,5.34-12.26,4.94-.95-.12-1.92-.81-2.62-.85-.85-.05-12.87,7.18-14.7,8.27-4.74,2.84-9.14,6.52-14.23,8.68v.48c1.12-.13,1.32.8,1.45,1.74,1.18,8.81-.37,24.17-9.7,28.39-.99.45-4.92,1.39-5.06,1.61-.21.31-.03,1.03-.21,1.47-.27.65-.89.93-.87,1.6,1.88.36,3.9,1.23,5.24,2.66s2.02,4.7,2.99,5.34c1.92,1.28,6.82.32,8.02,3.32l47.2,144.07c.08.73-1.09,1.72-1.79,1.98-2.56.96-13.91,1.03-15.46-1.14l-28.28-82.67-10.71-3.22.28,70.89c-.49.59-1.04.64-1.75.71-3.65.37-7.37-.29-10.94-.51-2.14-.13-7.34.81-7.97-1.42l-.2-65.06c-.1-1.15-.4-2.24-.53-3.39-.08-.71.32-.83-.7-.71l-13.43,3.38-25.01,79.55-.37.32c-2.3-.35-5.67.42-7.79-.02-.39-.08-.33-.75-.67-.97-1.53-1-2.52-.29-2.04-3.05l42.47-142.38c1.83-3.34,4.62-1.31,6.57-2.32.6-.31.75-1.26,1.34-1.73.96-.76,2.4-1.16,3.39-1.93l-.27-7.97c-2.32-.99-4.75-1.32-7.08-2.39-1.99-.92-3.96-2.33-5.67-3.69-1.64.27-4.91,2.8-6.29,1.89-.36-.23-.3-.94-.64-1-1.74-.31-2.1,1.01-3.31,1.58-.66.31-3.71,1.22-3.82,1.38-.26.37,1.16,1.11-.48,2.67-1.88,1.79-11.83,7.82-14.21,8.01-1.75.13-2.47-.97-3.4-.99-.33,0-.2.74-.6,1-.91.59-4.52,3.04-5.07,3.18-.92.24-2.06-.89-2.55-.54-.79.57-2.12,3.28-3.47,3.95-1.97.98-6.14-2.43-7.15-4.19-2.92-5.12-2.03-8.81,4.67-8.25-.86-3.54,6.7-3.82,7.37-6.16.25-.89-.1-1.95.16-2.77.28-.89,5.33-3.08,6.53-3.81,1.8-1.11,8.65-6.73,10.29-5.54.76.55.15,1.76.72,2.22,1.2-1.15,5.75-3.26,6.46-4.36.19-.29-.53-2.56,1.25-4.14.34-.3,2.93-1.79,3.44-1.98,1.09-.42,3.15-.34,4.17-1.16.59-.47-.01-1.58,1.32-2.71,1.14-.97,3.29-1.68,4.62-.75.5.35.05,1.27,1.03.95l20.04-12.23c-.5-2.85,1.68-5.24,4.43-5.7,1.1-.18,1.38.71,1.96.83,1.76.37,26.55-16.94,30.6-18.48,4.34-3.16,8.51-7.16,12.73-10.38.9-.69,4.09-2.32,5.09-2.13,2.55.48,8.99,8.93,10.22,11.43,1.15,2.33,2.56,6.58,1.95,9.1-.05.22-1.38,3.02-1.5,3.15ZM433.48,182.39c-1.61-.05-.16,5.75.11,6.7,1.01,3.6,4.2,9.3,7.72,10.93,4.99,2.32.62-7.13-.37-8.89-1.91-3.37-4.63-6.12-7.45-8.75ZM430.26,186.28c-.48,2.6.24,5.77,1.39,8.12.9,1.84,6.37,8.91,8.28,8.91.38,0,.91-.58.22-1.19-1.28-1.14-2.79-1.62-4.2-3.18-1.99-2.2-4.29-6.37-4.98-9.23l-.71-3.43ZM427.77,187.25c-.76-.22-.85.25-1.26.47-2.32,1.25-4.3,3.85-6.94,4.87-.52,3.67-1.06,6.18.66,9.6,1.19,2.36,4.84,6.04,7.71,5.86.69-.04,8.27-3.08,8.27-3.52l-4.88-5.93c-2.28-3.37-4.33-7.17-3.56-11.35ZM416.85,195.53l-30.03,18c-.72,1.15.19,2.47.26,3.66.08,1.26-.2,2.69.01,3.88.26,1.46,2.34,5,3.91,5.41l30.8-18.53c-3.52-2.91-6.24-7.94-4.96-12.41ZM379.64,218.9l-20.6,12.16c-.56,1.07.53,8.18.98,9.76s1.18,3.25,2.5,4.37c.94-1.87.76-3.83,1.5-5.83,2.12-5.82,8.73-8.42,14.63-6.82l.99-13.63ZM390.06,229.6c.66-.55-1.56-1.91-1.99-2.18s-.7-1.2-1.24-.26-.14,2.35-.24,3.41l3.47-.98ZM386.15,237.82c4.65,1.88,6.82-3.49,6.88-7.24-.9,1.07-6,2.19-6.35,2.53-.41.4-.88,4.23-.53,4.71ZM352.34,233.5l-2.42.55c-.49,4.4.22,8.13,3.66,11.13.55.48.82,1.17,1.74.97-2.15-3.88-2.27-8.4-2.98-12.66ZM347.38,235.45c-2.68.08-1.02,4.1-.51,5.61,1.06,3.18,2.76,6.25,5.72,8.01,1.64-1.13-1.07-2.02-1.74-2.8-2.4-2.73-4.29-7.24-3.47-10.82ZM367.23,248.6c5.17.54,7.99-.44,9.58-5.45,1.21-3.79,2.12-8.53-3.64-6.98-6.06,1.63-6.35,7.2-5.94,12.43ZM344.4,240.8l-8.47,4.69c-.04,3,1.69,5.99,4.34,7.41l7.6-3.83c-1.02-2.68-3.29-5.18-3.48-8.27ZM382.12,254.44c6.64,0,10.43-7.83,10.42-13.63-2.41,1.79-5.21,1.04-7.7,1.94-1.4,4.12-3.56,7.07-2.72,11.7ZM339.44,254.93c-5.01-1.33-6.13-6.73-6.45-11.2l-11.42,7.15c.04,3.57-.86,7.67,3.13,9.52.52.24,3.73,1.22,4.17,1.24,1.17.06,9.01-4.49,10.06-5.51.42-.41.7-.45.52-1.19ZM377.65,253.95c-3.89.25-2.47,5.55-2.98,8.28h3.97s-.99-8.28-.99-8.28ZM319.1,255.89c-.34-.45-3.75,1.51-4.25,1.95-2,1.76,2.73,7.1,4.91,6.73.58-.1,3.35-2.1,2.81-2.82-2.31-.52-3.5-3.65-3.47-5.85ZM308.24,261.3c-1.01,2.09,2.7,7.15,4.55,6.7.73-.18,2.78-1.86,2.74-2.62-1.34-.54-2.97-4.13-3.34-4.39-.91-.66-2.92-.06-3.94.32ZM378.55,275.95c-.23-.16-3.76-.73-3.87-.58-.02,4.57-2.86,9.54-3.44,13.91-1.03,7.7-.4,22.47-.06,30.66.07,1.74.57,3.76.53,5.57,2.17.7,4.46-1.72,5.7-1.94,2.19-.39,4.54.36,6.7.48.09-1.26-.45-2.36-.52-3.63-.51-9.11.05-19.13.51-28.21-1-1.97-4.81-15.77-5.54-16.27ZM367.23,326.49v-34.57l-11.43,36.26c-.01.99-.17.73.52.51,3.47-1.15,7.29-1.75,10.91-2.2ZM396.01,327.95l-8.43-24.34.55,21.6c.1.44.4.55.78.7,1.99.81,4.99,1.19,7.1,2.04ZM371.7,332.33v67.19l12.9.49c-.11-11.12.13-22.25.02-33.37-.01-1.16-.53-2.21-.54-3.36-.13-10.37.2-20.75-.04-31.12-.1-.44-.38-.56-.77-.7-3.6-1.28-7.95.23-11.57.89Z"/><path id="U" d="M159.94,215.12c1.37-1.12,11.47-.49,14.05-.58,4.01-.15,8.38-.19,12.38-.51,2.01-.16,11.66-2.7,6.21,2.2-2.84,2.56-6.09,2.98-8.54,6.71-4.09,6.23-4.05,20.29-4.39,27.82-1.24,27.19.49,51.95,3.49,78.9,2.56,22.95,10.95,62.67,37.99,68.86,10.05,2.3,19.89-3.21,24.13-12.29,12.45-26.66,10.71-58.1,11.81-86.76.5-13.15.16-26.23.48-39.46.21-9.04,1.09-18.19.03-27.24-.55-4.62-2.81-14.44-7.49-16.51-1.46-.64-3.04-.54-4.44-1-1.21-.4-2.51-1.71-4.16-1.69-.92-.37.08-2.09,1.05-2.36.88-.25,3.75-.53,4.84-.6,9.72-.63,20.37-.09,30.29-.46,2.47-.09,6.87-2.03,5.98,2.46-4.81,1.28-6.94,1.87-9.61,6.15-7.78,12.5-5.76,43.68-5.58,58.84.16,13.07.62,26.35.99,39.44.52,18.54.79,39.16-5.55,56.83-3.34,9.29-6.37,17.08-13.77,23.98-14.5,13.54-31.16,13.47-47.31,2.58-14.07-9.49-20.74-16.95-25.5-33.4-11.8-40.75-11.59-80.69-9.07-122.55.39-6.54,1.86-12.58-.35-19.13-1.56-4.64-5.57-5.03-8.86-7.88-.15-.34.65-2.13.89-2.33Z"/><path id="C" d="M115.65,246.65c-.05-4.08-.9-7.68-2.55-11.38-3.36-7.54-6.22-8.85-14.52-8.05-14.5,1.39-22.77,5.66-33.79,14.56-12.51,10.11-18.02,18.8-25,32.92-9.45,19.14-13.23,47.59-8.26,68.34,1.74,7.25,14.5,26.8,19.85,32.62,7.89,8.59,32,16.67,43.62,15.52,15.49-1.54,24.88-16.65,23.63-31.11,2.56-.4,3.25,1.52,3.48,3.65.78,7.36-.32,16.27-.03,23.88.23,5.82,2.01,13.82,1.01,19.44-.14.8-.61,1.28-1.29,1.69-3.84-2.13-4.58-7.46-8.11-9.98-4.97-3.55-8.93-.61-13.81.61-21.58,5.42-53.89-3.9-68.57-20.56-33.07-37.54-24.19-88.64,3.06-126.49,6.62-9.19,20.1-18.22,30.03-24.1,9.04-5.35,19.66-9.13,30.17-10.32,8.32-.94,14.24.96,19.2-7.45.49-.82.52-1.9,1.16-2.75,1.36-1.81,2.53-.67,2.74,1.17.86,7.5-.23,17.49-.05,25.36.08,3.37.97,7.15.54,10.71-.22,1.8-.67,1.78-2.5,1.68Z"/></svg>