<?xml version="1.0" encoding="UTF-8"?><svg id="White_Text" xmlns="http://www.w3.org/2000/svg" viewBox="0 0 1280 1280"><defs><style>.cls-1{fill:#fff;}</style></defs><path id="S" class="cls-1" d="M1162.77,414.24c.85.85,1.13,3,1.24,4.24,1.08,11.78.72,25.11,1.03,36.97.32,11.82-1.39,23.13-1.06,35.05.08,2.81,2.3,5.74-.47,8.52-3.94,3.95-7.45-1.76-8.74-5.3-1.75-4.8-1.94-13.12-3.27-18.73-1.91-8.12-6.56-20.42-13.47-25.53-7.74-5.72-28.77-6.04-36.55-.47-33.15,23.74-26.41,68.12-8.3,99.32,13.7,23.61,46.15,38.83,67.73,55.27,23.4,17.83,41.51,38.01,53.94,65.06,13.84,30.12,19.3,73.89,3.32,104.04-21.08,39.78-53.74,62.8-98.79,67.21-10.29,1.01-22.02-1.61-32.94-.94-3.57.22-7.1,1.49-10.77,1.23-6.04,2.15-10.65,17.68-16.04,17.58-7.1-.14-1.93-16.93-1.6-21.22,1.29-17.08-1.42-35.98-.04-53.04.3-3.73.65-10.91,5.46-10.55,4.96.44,5.04,11.92,6.31,15.78,2.44,7.4,13.53,21.5,19.9,26.1,11.39,8.23,20.87,5.1,33.1,1.44,13.65-4.08,38.47-14.53,47.24-25.76,12.6-16.14,14.6-49.07,14.04-69.05-.67-24.11-7.6-55.2-17.57-77.43-10.58-23.59-43.14-43.56-65.15-55.85-5-2.8-11.05-4.58-16.25-7.75-20.94-12.74-40.55-33.43-49.56-56.44-15.66-39.93,25.82-88.3,64.25-95.73,16.52-3.19,31.09,1.85,46.91-7.09,3.97-2.24,11.92-11.07,16.1-6.93Z"/><path id="A" class="cls-1" d="M934.77,418.77c-.78.78-8.76,3.2-10.48,4.02-6.23,2.97-18.15,10.96-24.71,10.15-1.92-.24-3.88-1.67-5.27-1.75-1.71-.1-25.94,14.74-29.63,17-9.55,5.83-18.42,13.39-28.68,17.82v.98c2.25-.26,2.66,1.64,2.91,3.57,2.38,18.09-.75,49.64-19.55,58.32-1.99.92-9.91,2.86-10.2,3.31-.42.64-.05,2.11-.42,3.01-.55,1.34-1.8,1.91-1.76,3.3,3.79.74,7.87,2.53,10.56,5.46s4.08,9.65,6.03,10.97c3.86,2.62,13.74.66,16.17,6.83l95.11,295.93c.16,1.51-2.2,3.54-3.6,4.08-5.15,1.97-28.03,2.11-31.17-2.35l-56.99-169.81-21.59-6.62.57,145.6c-.98,1.22-2.1,1.31-3.53,1.46-7.36.77-14.85-.6-22.04-1.05-4.3-.27-14.79,1.67-16.06-2.91l-.4-133.63c-.21-2.36-.81-4.59-1.08-6.95-.17-1.46.64-1.71-1.42-1.46l-27.07,6.95-50.39,163.4-.74.66c-4.64-.73-11.42.87-15.69-.04-.78-.17-.67-1.55-1.35-2-3.08-2.06-5.07-.6-4.1-6.27l85.58-292.45c3.68-6.87,9.3-2.69,13.24-4.77,1.21-.64,1.52-2.59,2.71-3.55,1.94-1.57,4.84-2.39,6.84-3.96l-.53-16.37c-4.67-2.03-9.57-2.71-14.27-4.92-4.01-1.89-7.97-4.79-11.42-7.58-3.31.55-9.89,5.74-12.67,3.87-.72-.48-.61-1.92-1.3-2.05-3.5-.65-4.24,2.08-6.68,3.25-1.33.64-7.47,2.5-7.71,2.84-.53.77,2.34,2.27-.98,5.47-3.8,3.67-23.85,16.07-28.64,16.45-3.52.28-4.97-2-6.86-2.03-.66-.01-.41,1.52-1.21,2.06-1.83,1.21-9.11,6.23-10.22,6.53-1.85.49-4.15-1.82-5.13-1.1-1.59,1.16-4.28,6.73-6.99,8.11-3.96,2.02-12.38-4.99-14.4-8.61-5.88-10.51-4.1-18.1,9.4-16.96-1.74-7.27,13.5-7.84,14.85-12.65.51-1.82-.2-4.01.32-5.68.57-1.83,10.75-6.32,13.16-7.84,3.62-2.28,17.43-13.83,20.74-11.38,1.53,1.13.3,3.61,1.44,4.57,2.42-2.36,11.59-6.69,13.02-8.95.38-.59-1.07-5.26,2.53-8.51.69-.62,5.91-3.67,6.93-4.07,2.2-.87,6.34-.69,8.41-2.37,1.19-.97-.02-3.25,2.66-5.56,2.3-1.99,6.62-3.45,9.31-1.55,1.01.72.1,2.61,2.07,1.95l40.39-25.11c-1.01-5.85,3.38-10.77,8.92-11.7,2.22-.37,2.79,1.45,3.95,1.7,3.54.76,53.51-34.79,61.67-37.96,8.76-6.5,17.16-14.7,25.66-21.33,1.81-1.41,8.24-4.77,10.26-4.38,5.14.99,18.11,18.34,20.61,23.48,2.32,4.78,5.15,13.51,3.92,18.69-.11.46-2.78,6.21-3.03,6.46ZM912.5,375.02c-3.24-.11-.33,11.8.22,13.77,2.04,7.39,8.46,19.09,15.55,22.45,10.06,4.76,1.25-14.65-.75-18.26-3.84-6.92-9.34-12.57-15.02-17.96ZM906.01,383.01c-.97,5.35.48,11.85,2.8,16.68,1.82,3.77,12.84,18.31,16.7,18.29.77,0,1.83-1.18.45-2.44-2.57-2.34-5.63-3.33-8.47-6.53-4.01-4.52-8.64-13.08-10.04-18.96l-1.44-7.05ZM901,385.01c-1.53-.45-1.71.51-2.53.96-4.68,2.56-8.67,7.9-13.99,10.01-1.04,7.54-2.14,12.69,1.34,19.72,2.4,4.84,9.74,12.41,15.53,12.04,1.39-.09,16.67-6.33,16.67-7.24l-9.83-12.17c-4.59-6.92-8.72-14.72-7.18-23.31ZM879,402.01l-60.52,36.98c-1.45,2.35.37,5.07.53,7.51.16,2.6-.4,5.53.03,7.97.53,3,4.71,10.27,7.89,11.1l62.06-38.07c-7.08-5.99-12.58-16.31-9.99-25.49ZM804,450l-41.51,24.98c-1.13,2.2,1.06,16.8,1.98,20.04.94,3.3,2.39,6.68,5.03,8.97,1.89-3.85,1.54-7.86,3.01-11.98,4.28-11.95,17.59-17.3,29.48-14.01l2-28ZM825,472c1.34-1.14-3.14-3.91-4.01-4.48s-1.41-2.47-2.5-.53-.28,4.83-.48,7.01l6.99-2ZM817.13,488.87c9.37,3.86,13.74-7.16,13.86-14.87-1.82,2.2-12.08,4.49-12.79,5.2-.83.82-1.76,8.68-1.07,9.67ZM749,480l-4.87,1.14c-.98,9.04.44,16.71,7.37,22.87,1.12.99,1.65,2.4,3.5,1.99-4.33-7.98-4.57-17.25-6-26ZM739,484.01c-5.41.16-2.06,8.43-1.04,11.53,2.15,6.53,5.56,12.83,11.54,16.45,3.31-2.32-2.15-4.16-3.51-5.74-4.84-5.62-8.64-14.87-6.99-22.23ZM779,511c10.41,1.12,16.09-.91,19.31-11.2,2.43-7.78,4.27-17.51-7.34-14.33-12.21,3.34-12.8,14.79-11.97,25.53ZM732.99,495l-17.06,9.63c-.08,6.16,3.41,12.29,8.75,15.22l15.31-7.86c-2.05-5.51-6.64-10.63-7-16.99ZM809,523c13.37-.02,21.02-16.07,20.99-28-4.86,3.68-10.51,2.13-15.51,3.98-2.83,8.46-7.17,14.52-5.48,24.02ZM723,524.01c-10.09-2.74-12.35-13.83-13.01-23.01l-23.02,14.68c.09,7.33-1.74,15.76,6.31,19.55,1.04.49,7.52,2.5,8.4,2.55,2.37.13,18.15-9.22,20.27-11.32.84-.83,1.4-.92,1.05-2.43ZM800,522c-7.84.52-4.97,11.39-6,17h8s-2-17-2-17ZM682,526c-.69-.93-7.57,3.1-8.56,4-4.04,3.62,5.51,14.58,9.9,13.82,1.17-.2,6.75-4.31,5.67-5.8-4.66-1.08-7.06-7.5-7-12.02ZM660.11,537.11c-2.04,4.28,5.44,14.68,9.16,13.76,1.46-.36,5.61-3.83,5.51-5.38-2.7-1.1-5.98-8.48-6.73-9.03-1.84-1.35-5.88-.12-7.94.66ZM801.81,567.18c-.46-.32-7.57-1.5-7.81-1.19-.04,9.39-5.76,19.6-6.93,28.58-2.07,15.83-.8,46.15-.12,62.97.14,3.57,1.14,7.72,1.06,11.45,4.38,1.44,8.98-3.54,11.49-3.99,4.42-.8,9.14.73,13.49.99.17-2.59-.9-4.86-1.04-7.45-1.02-18.7.1-39.29,1.03-57.94-2.02-4.05-9.69-32.39-11.17-33.43ZM779,671v-71l-23.03,74.48c-.03,2.03-.35,1.51,1.04,1.04,6.99-2.36,14.69-3.59,21.99-4.52ZM837,674l-16.99-49.99,1.11,44.37c.19.9.81,1.12,1.56,1.44,4.01,1.66,10.05,2.45,14.31,4.18ZM788,683v138l26,1c-.23-22.83.27-45.71.04-68.55-.02-2.37-1.06-4.53-1.09-6.91-.27-21.3.4-42.62-.08-63.92-.2-.9-.76-1.16-1.55-1.45-7.25-2.63-16.01.47-23.32,1.82Z"/><path id="U" class="cls-1" d="M361.24,442.24c2.75-2.3,23.12-1,28.31-1.19,8.07-.3,16.89-.4,24.95-1.05,4.05-.32,23.49-5.55,12.51,4.51-5.73,5.25-12.28,6.13-17.21,13.79-8.24,12.8-8.16,41.68-8.85,57.15-2.5,55.85.98,106.71,7.04,162.05,5.16,47.15,22.07,128.72,76.56,141.44,20.25,4.72,40.09-6.6,48.63-25.25,25.09-54.76,21.59-119.35,23.8-178.2,1.02-27,.33-53.88.96-81.04.43-18.57,2.21-37.36.05-55.96-1.1-9.5-5.66-29.67-15.09-33.91-2.94-1.32-6.14-1.1-8.95-2.06-2.43-.83-5.07-3.52-8.39-3.48-1.85-.77.15-4.29,2.11-4.86,1.77-.51,7.57-1.1,9.76-1.24,19.58-1.29,41.06-.18,61.05-.95,4.98-.19,13.84-4.17,12.06,5.06-9.7,2.63-14,3.83-19.37,12.63-15.67,25.67-11.61,89.72-11.24,120.85.32,26.85,1.25,54.13,2,81,1.06,38.09,1.6,80.44-11.19,116.72-6.72,19.08-12.85,35.08-27.75,49.25-29.23,27.81-62.8,27.66-95.34,5.3-28.35-19.49-41.8-34.81-51.4-68.6-23.77-83.7-23.35-165.73-18.28-251.72.79-13.42,3.75-25.85-.7-39.3-3.15-9.53-11.22-10.34-17.85-16.18-.31-.7,1.3-4.37,1.78-4.78Z"/><path id="C" class="cls-1" d="M272,507.01c-.1-8.37-1.82-15.78-5.14-23.37-6.77-15.48-12.54-18.17-29.26-16.53-29.22,2.86-45.88,11.63-68.09,29.91-25.22,20.76-36.32,38.61-50.38,67.62-19.05,39.32-26.67,97.75-16.66,140.38,3.5,14.9,29.23,55.06,40,67,15.9,17.64,64.5,34.25,87.91,31.87,31.21-3.16,50.13-34.2,47.61-63.9,5.16-.83,6.55,3.11,7.01,7.49,1.57,15.11-.65,33.42-.05,49.05.46,11.94,4.05,28.38,2.03,39.94-.29,1.64-1.23,2.64-2.59,3.47-7.74-4.38-9.24-15.32-16.35-20.5-10.01-7.29-18-1.25-27.83,1.26-43.5,11.13-108.61-8-138.2-42.24-66.64-77.1-48.75-182.06,6.16-259.8,13.33-18.88,40.52-37.42,60.51-49.49,18.21-10.99,39.61-18.76,60.81-21.19,16.77-1.92,28.7,1.97,38.69-15.31.98-1.69,1.05-3.89,2.35-5.65,2.74-3.72,5.09-1.38,5.52,2.41,1.74,15.41-.46,35.92-.1,52.1.15,6.92,1.96,14.68,1.09,22-.44,3.69-1.36,3.67-5.04,3.46Z"/></svg>